<svg width="77" height="51" viewBox="0 0 77 51" fill="none" xmlns="http://www.w3.org/2000/svg">
<path d="M3.47818 36H17.7303V30.4858H9.2893V5.54468H3.47818V36ZM37.8965 29.383C36.3271 30.91 34.7152 31.5886 32.2975 31.5886C29.0738 31.5886 26.5288 29.7223 25.9774 26.3714H44.1318C44.1318 25.8624 44.1742 25.6079 44.1742 25.0989C44.1742 17.9728 39.3387 12.8828 32.2126 12.8828C24.9594 12.8828 20.5056 18.5667 20.5056 24.7171C20.5056 31.3341 25.129 36.5938 32.2975 36.5938C37.0482 36.5938 40.2294 35.0668 42.6472 31.6311L37.8965 29.383ZM26.2319 21.9176C27.3347 19.0757 29.498 17.6759 32.2975 17.6759C35.3091 17.6759 37.7268 19.2877 38.4903 21.9176H26.2319ZM49.419 36H55.0604V22.3418H64.5194V16.6579H55.0604V11.2285H64.5194V5.54468H49.419V36ZM68.484 36H74.1255V13.4766H68.484V36ZM71.2836 4.18734C69.3324 4.18734 67.6781 5.67193 67.6781 7.62311C67.6781 9.70154 69.2051 11.5255 71.2836 11.5255C73.2771 11.5255 74.889 9.91362 74.889 7.92002C74.889 5.88402 73.3196 4.18734 71.2836 4.18734Z" fill="white"/>
<rect x="27.394" y="4.41846" width="9.72054" height="3.53474" fill="#EF5DA8"/>
</svg>
